<svg width="25" height="26" viewBox="0 0 25 26" fill="none" xmlns="http://www.w3.org/2000/svg">
<path d="M12.5 25.5C5.6071 25.5 0 19.8929 0 13C0 6.1071 5.6071 0.5 12.5 0.5C19.3929 0.5 25 6.1071 25 13C25 19.8929 19.3929 25.5 12.5 25.5ZM4.646 21.9518C6.74479 23.7959 9.49381 24.9141 12.5 24.9141C15.5054 24.9141 18.2552 23.7959 20.3532 21.9518H20.3451C20.3451 18.4191 17.9517 15.3104 14.5239 14.3916C14.4067 14.3607 14.3221 14.2614 14.3083 14.1418C14.2936 14.0229 14.3555 13.9066 14.4613 13.8504C15.8268 13.1204 16.6748 11.7061 16.6748 10.1606C16.6748 7.84945 14.7982 5.96875 12.4919 5.96875C10.1855 5.96875 8.3081 7.84945 8.3081 10.1606C8.3081 11.7061 9.15609 13.1204 10.5216 13.8504C10.6274 13.9066 10.6885 14.0229 10.6746 14.1418C10.6608 14.2606 10.5754 14.3607 10.4598 14.3916C7.04102 15.3071 4.65495 18.4159 4.65495 21.9518H4.646ZM15.2954 14.0173C18.4798 15.1379 20.7039 18.0643 20.9147 21.4261C23.0754 19.2687 24.4141 16.2878 24.4141 13C24.4141 6.43018 19.0698 1.08594 12.5 1.08594C5.93018 1.08594 0.585938 6.43018 0.585938 13C0.585938 16.2878 1.92464 19.2687 4.08529 21.4261C4.29525 18.061 6.51204 15.1362 9.68669 14.0173C8.4611 13.127 7.72135 11.7012 7.72135 10.1606C7.72135 7.52637 9.86084 5.38281 12.4902 5.38281C15.1204 5.38281 17.2599 7.52555 17.2599 10.1606C17.2607 11.7012 16.521 13.127 15.2954 14.0173Z" fill="#182866"/>
</svg>
