<svg width="13" height="13" viewBox="0 0 13 13" fill="none" xmlns="http://www.w3.org/2000/svg">
<path d="M6.50003 2.88879C6.79917 2.88879 7.04169 3.13131 7.04169 3.43046V5.95824H9.56947C9.86862 5.95824 10.1111 6.20076 10.1111 6.4999C10.1111 6.79905 9.86862 7.04157 9.56947 7.04157H7.04169V9.56935C7.04169 9.86849 6.79917 10.111 6.50003 10.111C6.20088 10.111 5.95836 9.86849 5.95836 9.56935V7.04157H3.43058C3.13143 7.04157 2.88892 6.79905 2.88892 6.4999C2.88892 6.20076 3.13143 5.95824 3.43058 5.95824H5.95836V3.43046C5.95836 3.13131 6.20088 2.88879 6.50003 2.88879Z" fill="white"/>
<path d="M0 2.34722C0 1.05088 1.05088 0 2.34722 0H10.6528C11.9491 0 13 1.05088 13 2.34722V10.6528C13 11.9491 11.9491 13 10.6528 13H2.34722C1.05088 13 0 11.9491 0 10.6528V2.34722ZM2.34722 1.08333C1.64919 1.08333 1.08333 1.64919 1.08333 2.34722V10.6528C1.08333 11.3508 1.64919 11.9167 2.34722 11.9167H10.6528C11.3508 11.9167 11.9167 11.3508 11.9167 10.6528V2.34722C11.9167 1.64919 11.3508 1.08333 10.6528 1.08333H2.34722Z" fill="white"/>
</svg>
