<svg width="17" height="21" viewBox="0 0 17 21" fill="none" xmlns="http://www.w3.org/2000/svg">
<path d="M16.2919 4.17857H2.73848C2.55777 4.17631 2.37945 4.14177 2.21427 4.07703C2.0491 4.01229 1.90049 3.9187 1.77741 3.80189C1.65433 3.68508 1.55934 3.54748 1.49814 3.39739C1.43695 3.24729 1.41084 3.08782 1.42138 2.92857C1.4205 2.61167 1.55602 2.3063 1.80054 2.07424C2.04506 1.84218 2.38031 1.70076 2.73848 1.67857H16.2919C16.4797 1.67857 16.6598 1.61273 16.7926 1.49552C16.9254 1.37831 17 1.21933 17 1.05357C17 0.887813 16.9254 0.728842 16.7926 0.611632C16.6598 0.494422 16.4797 0.428574 16.2919 0.428574H2.73848C2.00457 0.451259 1.30934 0.724632 0.7994 1.19104C0.289462 1.65744 0.00468801 2.28042 0.00513794 2.92857C-0.00171265 3.03057 -0.00171265 3.13283 0.00513794 3.23482C-0.00168466 3.28464 -0.00168466 3.335 0.00513794 3.38482V17.9286C0.00468801 18.5767 0.289462 19.1997 0.7994 19.6661C1.30934 20.1325 2.00457 20.4059 2.73848 20.4286H16.2919C16.4797 20.4286 16.6598 20.3627 16.7926 20.2455C16.9254 20.1283 17 19.9693 17 19.8036V4.95982C17 4.95982 17 4.92232 17 4.90357C17 4.88482 17 4.86607 17 4.84732C17.0004 4.67729 16.9274 4.5135 16.7959 4.38927C16.6643 4.26504 16.4841 4.1897 16.2919 4.17857V4.17857ZM15.5838 19.1786H2.73848C2.38031 19.1564 2.04506 19.015 1.80054 18.7829C1.55602 18.5508 1.4205 18.2455 1.42138 17.9286V5.14732C1.82401 5.34337 2.27885 5.44049 2.73848 5.42857H15.5838V19.1786Z" fill="#00255B"/>
</svg>
