<svg width="15" height="15" viewBox="0 0 15 15" fill="none" xmlns="http://www.w3.org/2000/svg">
<g clip-path="url(#clip0_594646_1183)">
<path d="M13.75 1.40626H11.7188V0.468765C11.71 0.216265 11.5037 0.0150146 11.25 0.0150146C10.9963 0.0150146 10.79 0.216265 10.7812 0.46814V0.468765V1.40626H7.96875V0.468765C7.96 0.216265 7.75375 0.0150146 7.5 0.0150146C7.24625 0.0150146 7.04 0.216265 7.03125 0.46814V0.468765V1.40626H4.21875V0.468765C4.21 0.216265 4.00375 0.0150146 3.75 0.0150146C3.49625 0.0150146 3.29 0.216265 3.28125 0.46814V0.468765V1.40626H1.25C0.56 1.40626 0 1.96564 0 2.65564V13.7494C0 14.44 0.559375 14.9994 1.25 14.9994H13.75C14.4406 14.9994 15 14.44 15 13.7494V2.65564C15 1.96564 14.44 1.40626 13.75 1.40626V1.40626ZM14.0625 13.75C14.0625 13.9225 13.9225 14.0619 13.7506 14.0625H1.25C1.0775 14.0625 0.9375 13.9225 0.9375 13.75V2.65626C0.938125 2.48376 1.0775 2.34439 1.25 2.34439H3.28125V3.28189C3.29 3.53439 3.49625 3.73564 3.75 3.73564C4.00375 3.73564 4.21 3.53439 4.21875 3.28251V3.28189V2.34439H7.03125V3.28189C7.04 3.53439 7.24625 3.73564 7.5 3.73564C7.75375 3.73564 7.96 3.53439 7.96875 3.28251V3.28189V2.34439H10.7812V3.28189C10.79 3.53439 10.9963 3.73564 11.25 3.73564C11.5037 3.73564 11.71 3.53439 11.7188 3.28251V3.28189V2.34439H13.75C13.9225 2.34439 14.0619 2.48439 14.0619 2.65626L14.0625 13.75Z" fill="#8D8D8D"/>
<path d="M3.28125 5.625H5.15625V7.03125H3.28125V5.625Z" fill="#8D8D8D"/>
<path d="M3.28125 7.96875H5.15625V9.375H3.28125V7.96875Z" fill="#8D8D8D"/>
<path d="M3.28125 10.3125H5.15625V11.7188H3.28125V10.3125Z" fill="#8D8D8D"/>
<path d="M6.5625 10.3125H8.4375V11.7188H6.5625V10.3125Z" fill="#8D8D8D"/>
<path d="M6.5625 7.96875H8.4375V9.375H6.5625V7.96875Z" fill="#8D8D8D"/>
<path d="M6.5625 5.625H8.4375V7.03125H6.5625V5.625Z" fill="#8D8D8D"/>
<path d="M9.84375 10.3125H11.7188V11.7188H9.84375V10.3125Z" fill="#8D8D8D"/>
<path d="M9.84375 7.96875H11.7188V9.375H9.84375V7.96875Z" fill="#8D8D8D"/>
<path d="M9.84375 5.625H11.7188V7.03125H9.84375V5.625Z" fill="#8D8D8D"/>
</g>
<defs>
<clipPath id="clip0_594646_1183">
<rect width="15" height="15" fill="white"/>
</clipPath>
</defs>
</svg>
