<svg width="14" height="13" viewBox="0 0 14 13" fill="none" xmlns="http://www.w3.org/2000/svg">
<path d="M4.86259 3.70918L6.35146 2.21381V8.44887C6.35146 8.6213 6.41996 8.78667 6.54189 8.9086C6.66382 9.03053 6.82919 9.09903 7.00162 9.09903C7.17405 9.09903 7.33943 9.03053 7.46135 8.9086C7.58328 8.78667 7.65178 8.6213 7.65178 8.44887V2.21381L9.14065 3.70918C9.2011 3.77012 9.273 3.81849 9.35223 3.8515C9.43146 3.88451 9.51644 3.9015 9.60227 3.9015C9.6881 3.9015 9.77308 3.88451 9.85231 3.8515C9.93153 3.81849 10.0034 3.77012 10.0639 3.70918C10.1248 3.64874 10.1732 3.57683 10.2062 3.49761C10.2392 3.41838 10.2562 3.3334 10.2562 3.24757C10.2562 3.16174 10.2392 3.07676 10.2062 2.99753C10.1732 2.9183 10.1248 2.84639 10.0639 2.78595L7.46324 0.185305C7.4014 0.126114 7.32849 0.079715 7.24868 0.0487709C7.09039 -0.016257 6.91285 -0.016257 6.75456 0.0487709C6.67475 0.079715 6.60184 0.126114 6.54001 0.185305L3.93936 2.78595C3.87874 2.84657 3.83065 2.91854 3.79784 2.99774C3.76504 3.07695 3.74815 3.16184 3.74815 3.24757C3.74815 3.3333 3.76504 3.41819 3.79784 3.49739C3.83065 3.5766 3.87874 3.64856 3.93936 3.70918C3.99998 3.7698 4.07194 3.81789 4.15115 3.8507C4.23035 3.88351 4.31524 3.90039 4.40097 3.90039C4.4867 3.90039 4.57159 3.88351 4.6508 3.8507C4.73 3.81789 4.80197 3.7698 4.86259 3.70918ZM12.8531 7.7987C12.6806 7.7987 12.5153 7.8672 12.3933 7.98913C12.2714 8.11106 12.2029 8.27643 12.2029 8.44887V11.0495C12.2029 11.2219 12.1344 11.3873 12.0125 11.5092C11.8906 11.6312 11.7252 11.6997 11.5528 11.6997H2.45049C2.27805 11.6997 2.11268 11.6312 1.99075 11.5092C1.86882 11.3873 1.80032 11.2219 1.80032 11.0495V8.44887C1.80032 8.27643 1.73183 8.11106 1.6099 7.98913C1.48797 7.8672 1.3226 7.7987 1.15016 7.7987C0.977728 7.7987 0.812357 7.8672 0.690428 7.98913C0.568499 8.11106 0.5 8.27643 0.5 8.44887V11.0495C0.5 11.5668 0.705497 12.0629 1.07128 12.4287C1.43707 12.7945 1.93319 13 2.45049 13H11.5528C12.0701 13 12.5662 12.7945 12.932 12.4287C13.2977 12.0629 13.5032 11.5668 13.5032 11.0495V8.44887C13.5032 8.27643 13.4347 8.11106 13.3128 7.98913C13.1909 7.8672 13.0255 7.7987 12.8531 7.7987Z" fill="#002891"/>
</svg>
