<svg width="13" height="13" viewBox="0 0 13 13" fill="none" xmlns="http://www.w3.org/2000/svg">
<path fill-rule="evenodd" clip-rule="evenodd" d="M12.0714 7.42857C12.5843 7.42857 13 7.84431 13 8.35714V11.1429C13 12.1686 12.1686 13 11.1429 13H1.85714C0.831471 13 0 12.1686 0 11.1429V8.35714C0 7.84431 0.41574 7.42857 0.928571 7.42857C1.4414 7.42857 1.85714 7.8443 1.85714 8.35714V11.1429H11.1429V8.35714C11.1429 7.8443 11.5586 7.42857 12.0714 7.42857ZM6.5 0C7.01283 0 7.42857 0.41574 7.42857 0.928571V5.18681L8.62912 3.98625C8.99173 3.62363 9.5797 3.62363 9.94231 3.98625C10.3049 4.34889 10.3049 4.93682 9.94231 5.29946L6.5 8.74176L3.05768 5.29946C2.69506 4.93682 2.69506 4.34889 3.05768 3.98625C3.42032 3.62363 4.00825 3.62363 4.37089 3.98625L5.57143 5.18681V0.928571C5.57143 0.41574 5.98717 0 6.5 0V0Z" fill="#002891"/>
</svg>
