<svg width="20" height="21" viewBox="0 0 20 21" fill="none" xmlns="http://www.w3.org/2000/svg">
<path d="M18.9763 8.32914L17.5725 8.09099C17.4263 7.61888 17.2383 7.16348 17.0085 6.72897L17.8357 5.57167C18.1866 5.07867 18.1323 4.40601 17.702 3.97986L16.457 2.73482C16.223 2.50085 15.9138 2.37134 15.5838 2.37134C15.3247 2.37134 15.0782 2.45072 14.8693 2.60112L13.7079 3.42837C13.2567 3.19022 12.7845 2.99385 12.2957 2.84763L12.0618 1.46054C11.9615 0.863084 11.4476 0.428574 10.8418 0.428574H9.08288C8.47707 0.428574 7.96319 0.863084 7.86291 1.46054L7.62059 2.88105C7.15266 3.02728 6.69726 3.21947 6.26276 3.45343L5.11382 2.62619C4.90492 2.47579 4.65424 2.3964 4.39521 2.3964C4.06515 2.3964 3.75181 2.52592 3.52202 2.75989L2.27281 4.00493C1.84666 4.43108 1.78817 5.10374 2.13911 5.59674L2.97471 6.77075C2.74492 7.20944 2.56109 7.66484 2.41904 8.13695L1.03196 8.37092C0.434508 8.47119 0 8.98508 0 9.59089V11.3498C0 11.9556 0.434508 12.4695 1.03196 12.5698L2.45246 12.8121C2.59869 13.28 2.79088 13.7354 3.02484 14.17L2.20178 15.3147C1.85084 15.8077 1.90515 16.4804 2.33548 16.9065L3.58051 18.1516C3.81447 18.3855 4.12364 18.5151 4.4537 18.5151C4.71274 18.5151 4.95923 18.4357 5.16813 18.2853L6.34214 17.4497C6.76411 17.6711 7.20698 17.8508 7.66237 17.9928L7.89634 19.3966C7.99661 19.9941 8.5105 20.4286 9.1163 20.4286H10.8794C11.4852 20.4286 11.9991 19.9941 12.0994 19.3966L12.3375 17.9928C12.8096 17.8466 13.265 17.6586 13.6995 17.4288L14.8568 18.256C15.0657 18.4064 15.3164 18.4858 15.5754 18.4858C15.9055 18.4858 16.2147 18.3563 16.4486 18.1223L17.6936 16.8773C18.1198 16.4511 18.1783 15.7785 17.8273 15.2855L17.0001 14.124C17.2299 13.6853 17.4221 13.2299 17.5641 12.762L18.9679 12.528C19.5654 12.4277 19.9999 11.9138 19.9999 11.308V9.54911C20.0082 8.9433 19.5737 8.42941 18.9763 8.32914ZM18.8802 11.308C18.8802 11.3624 18.8426 11.4083 18.7883 11.4167L17.0335 11.7091C16.8121 11.7467 16.6366 11.9097 16.5823 12.1227C16.4235 12.7369 16.1812 13.326 15.8553 13.8733C15.7425 14.0655 15.7509 14.3037 15.8804 14.4875L16.9124 15.9414C16.9416 15.9832 16.9374 16.0459 16.8998 16.0835L15.6548 17.3285C15.6256 17.3578 15.5963 17.3619 15.5754 17.3619C15.5504 17.3619 15.5295 17.3536 15.5128 17.341L14.063 16.3091C13.8834 16.1796 13.641 16.1712 13.4488 16.284C12.9015 16.6099 12.3124 16.8522 11.6983 17.011C11.481 17.0653 11.3181 17.245 11.2847 17.4622L10.988 19.217C10.9797 19.2713 10.9337 19.3089 10.8794 19.3089H9.12048C9.06617 19.3089 9.02021 19.2713 9.01185 19.217L8.7194 17.4622C8.68179 17.2408 8.51885 17.0653 8.30578 17.011C7.70833 16.8564 7.13177 16.6183 6.59282 16.3091C6.50508 16.2589 6.40481 16.2339 6.30872 16.2339C6.19591 16.2339 6.07893 16.2673 5.98283 16.3383L4.52055 17.3786C4.49966 17.3912 4.47877 17.3995 4.45788 17.3995C4.44117 17.3995 4.40774 17.3954 4.3785 17.3661L3.13347 16.1211C3.09587 16.0835 3.09169 16.025 3.12093 15.979L4.14871 14.5376C4.27823 14.3538 4.28658 14.1115 4.17378 13.9193C3.8479 13.3761 3.59722 12.787 3.43846 12.1729C3.37997 11.9598 3.20449 11.7969 2.98724 11.7593L1.21996 11.4584C1.16565 11.4501 1.12805 11.4041 1.12805 11.3498V9.59089C1.12805 9.53657 1.16565 9.49062 1.21996 9.48226L2.96217 9.1898C3.1836 9.1522 3.36326 8.98926 3.41757 8.772C3.57215 8.15784 3.8103 7.56457 4.132 7.01725C4.2448 6.82506 4.23227 6.58692 4.10275 6.40727L3.06244 4.94497C3.0332 4.90319 3.03737 4.84052 3.07498 4.80292L4.32001 3.55788C4.34925 3.52864 4.3785 3.52446 4.39939 3.52446C4.42446 3.52446 4.44535 3.53281 4.46206 3.54535L5.90345 4.57313C6.08728 4.70265 6.32961 4.71101 6.52179 4.5982C7.06493 4.27232 7.65402 4.02164 8.26818 3.86287C8.48125 3.80438 8.64419 3.62891 8.68179 3.41165L8.98261 1.64437C8.99096 1.59005 9.03692 1.55245 9.09123 1.55245H10.8502C10.9045 1.55245 10.9504 1.59005 10.9588 1.64437L11.2512 3.38659C11.2888 3.60802 11.4518 3.78767 11.669 3.84199C12.2999 4.00075 12.9015 4.24725 13.4614 4.57731C13.6536 4.69012 13.8917 4.68176 14.0755 4.55224L15.5169 3.5161C15.5378 3.50357 15.5587 3.49521 15.5796 3.49521C15.5963 3.49521 15.6297 3.49939 15.659 3.52864L16.904 4.77368C16.9416 4.81128 16.9458 4.86977 16.9165 4.91573L15.8846 6.36549C15.7551 6.54514 15.7467 6.78746 15.8595 6.97965C16.1854 7.52697 16.4277 8.11606 16.5865 8.73022C16.6408 8.94748 16.8205 9.11042 17.0377 9.14384L18.7925 9.44048C18.8468 9.44884 18.8844 9.49479 18.8844 9.54911V11.308H18.8802V11.308Z" fill="#00255B"/>
<path d="M10.002 6.11063C7.62061 6.11063 5.68622 8.04504 5.68622 10.4265C5.68622 12.8079 7.62061 14.7423 10.002 14.7423C12.3835 14.7423 14.3179 12.8079 14.3179 10.4265C14.3179 8.04504 12.3835 6.11063 10.002 6.11063ZM10.002 13.6143C8.24313 13.6143 6.81427 12.1854 6.81427 10.4265C6.81427 8.66756 8.24313 7.23869 10.002 7.23869C11.761 7.23869 13.1898 8.66756 13.1898 10.4265C13.1898 12.1854 11.761 13.6143 10.002 13.6143Z" fill="#00255B"/>
</svg>
