<svg width="14" height="14" viewBox="0 0 14 14" fill="none" xmlns="http://www.w3.org/2000/svg">
<path d="M10.8884 10.3385L13.8861 13.3361C14.038 13.488 14.038 13.7342 13.8861 13.8861C13.7342 14.038 13.488 14.038 13.3361 13.8861L10.3385 10.8884C9.24153 11.8568 7.8005 12.4444 6.22222 12.4444C2.78578 12.4444 0 9.65866 0 6.22222C0 2.78578 2.78578 0 6.22222 0C9.65866 0 12.4444 2.78578 12.4444 6.22222C12.4444 7.8005 11.8568 9.24153 10.8884 10.3385V10.3385ZM6.22222 11.6667C9.22911 11.6667 11.6667 9.22911 11.6667 6.22222C11.6667 3.21534 9.22911 0.777778 6.22222 0.777778C3.21534 0.777778 0.777778 3.21534 0.777778 6.22222C0.777778 9.22911 3.21534 11.6667 6.22222 11.6667Z" fill="#989898"/>
</svg>
