<svg width="15" height="10" viewBox="0 0 15 10" fill="none" xmlns="http://www.w3.org/2000/svg">
<path d="M3.51423 7.47099e-06C3.69537 -0.000777142 3.87774 0.060239 4.01594 0.183072L6.83658 2.68999C7.1112 2.93406 7.1112 3.32979 6.83658 3.57386C6.56196 3.81794 6.11671 3.81794 5.84209 3.57386L4.21745 2.12992V9.37498C4.21745 9.72014 3.9026 9.99996 3.51423 9.99996C3.12586 9.99996 2.81102 9.72014 2.81102 9.37498V2.13867L1.20045 3.5701C0.925834 3.81418 0.480589 3.81418 0.205971 3.5701C-0.0686569 3.32602 -0.0686569 2.9303 0.205971 2.68622L2.9679 0.231472C3.09684 0.090264 3.29368 7.47099e-06 3.51423 7.47099e-06ZM11.4857 1.44248e-05C11.8742 1.44248e-05 12.189 0.279838 12.189 0.625012V7.86132L13.7996 6.42991C14.0742 6.18583 14.5194 6.18583 14.794 6.42991C15.0687 6.67399 15.0687 7.06966 14.794 7.31374L12.0321 9.76848C11.9032 9.90973 11.7064 9.99999 11.4857 9.99999C11.3047 10.0008 11.1223 9.93973 10.9841 9.81689L8.1634 7.30999C7.88887 7.06591 7.88887 6.67024 8.1634 6.42616C8.43803 6.18208 8.8833 6.18208 9.15793 6.42616L10.7825 7.87007V0.625012C10.7825 0.279838 11.0974 1.44248e-05 11.4857 1.44248e-05Z" fill="#676767"/>
</svg>
