<svg width="20" height="20" viewBox="0 0 20 20" fill="none" xmlns="http://www.w3.org/2000/svg">
<path d="M18.5983 12.5156L15.9184 10.7621L16.9502 8.87047C17.1991 8.39814 17.3295 7.87241 17.3301 7.33852V4.33975C17.3322 3.49655 17.088 2.67111 16.6275 1.96478C16.167 1.25844 15.5102 0.701966 14.7379 0.36368C13.9655 0.0253941 13.1112 -0.0799741 12.2798 0.0605137C11.4483 0.201002 10.6761 0.58123 10.0577 1.15451L10.9635 2.13232C11.392 1.73617 11.9267 1.47366 12.5022 1.37696C13.0776 1.28026 13.6688 1.35358 14.2032 1.58792C14.7376 1.82226 15.192 2.20745 15.5107 2.69625C15.8294 3.18505 15.9985 3.75623 15.9973 4.33975V7.33852C15.9972 7.6494 15.9227 7.95574 15.7801 8.23199L14.1593 11.2036L17.8685 13.6307C18.1134 13.7909 18.3143 14.0098 18.453 14.2675C18.5918 14.5251 18.6639 14.8133 18.6629 15.106V17.3344H15.6642V18.6672H19.9957V15.1059C19.9971 14.5919 19.8699 14.0857 19.6259 13.6333C19.3818 13.1809 19.0286 12.7967 18.5983 12.5156V12.5156Z" fill="#00370C"/>
<path d="M12.6007 13.8483L9.92085 12.0948L10.9526 10.2032C11.2015 9.73083 11.3319 9.2051 11.3326 8.67121V5.67244C11.3317 4.523 10.8749 3.42085 10.0625 2.60776C9.25004 1.79467 8.14823 1.33705 6.9988 1.3353C4.61157 1.3353 2.66945 3.28096 2.66945 5.67244V8.67121C2.6669 9.20485 2.79586 9.73091 3.04492 10.2029L4.08233 12.1048L1.41804 13.8483C0.988225 14.129 0.635304 14.5126 0.391308 14.9642C0.147312 15.4159 0.0199657 15.9213 0.0208248 16.4347L0 19.9999H13.9981V16.4386C13.9995 15.9246 13.8724 15.4184 13.6283 14.966C13.3843 14.5136 13.031 14.1294 12.6007 13.8483V13.8483ZM12.6654 18.6671H1.34053L1.35345 16.4386C1.35244 16.146 1.42458 15.8578 1.56331 15.6001C1.70205 15.3425 1.90297 15.1236 2.14783 14.9633L5.8414 12.5465L4.21494 9.56468C4.07394 9.28803 4.00102 8.98172 4.00224 8.67121V5.67244C4.00224 4.87711 4.31818 4.11436 4.88056 3.55199C5.44293 2.98961 6.20568 2.67367 7.00101 2.67367C7.79633 2.67367 8.55908 2.98961 9.12146 3.55199C9.68384 4.11436 9.99978 4.87711 9.99978 5.67244V8.67121C9.99965 8.98209 9.92518 9.28843 9.78258 9.56468L8.16174 12.5363L11.871 14.9634C12.1158 15.1236 12.3167 15.3425 12.4555 15.6002C12.5942 15.8578 12.6664 16.146 12.6654 16.4387V18.6671Z" fill="#00370C"/>
</svg>
