<svg width="20" height="21" viewBox="0 0 20 21" fill="none" xmlns="http://www.w3.org/2000/svg">
<path d="M19.7043 10.8039L9.7287 0.821877C9.60438 0.6968 9.45651 0.597638 9.29365 0.530128C9.13078 0.462618 8.95614 0.428102 8.77986 0.428578H2.01283C1.47918 0.429189 0.967567 0.641587 0.59022 1.01917C0.212872 1.39676 0.000610425 1.90871 0 2.4427V9.20166C0.000293576 9.38501 0.0379733 9.56636 0.110733 9.73463C0.183493 9.9029 0.289803 10.0545 0.423156 10.1803L11.035 20.1554C11.221 20.3313 11.4673 20.4291 11.7232 20.4286C11.7357 20.4286 11.7482 20.4283 11.7609 20.4279C11.8939 20.4234 12.0248 20.3924 12.1457 20.3367C12.2666 20.281 12.3751 20.2016 12.465 20.1033L19.7334 12.1977C19.9097 12.0068 20.0052 11.7548 19.9998 11.4949C19.9944 11.235 19.8884 10.9873 19.7043 10.8039ZM11.7068 18.9446L1.34189 9.20166V2.4427C1.3421 2.2647 1.41286 2.09406 1.53864 1.9682C1.66442 1.84234 1.83495 1.77154 2.01283 1.77132H8.77986L18.5279 11.5256L11.7068 18.9446Z" fill="#00255B"/>
</svg>
